<svg width="555" height="66" viewBox="0 0 555 66" fill="#fff" xmlns="http://www.w3.org/2000/svg">
<path d="M400.316 0L458.615 2.03644e-05L458.615 9.64575L434.637 9.64574L434.637 64.4471L424.294 64.4471L424.294 9.64574L400.316 9.64573L400.316 0Z"/>
<path d="M458.447 58.7931C458.446 62.3445 455.5 65.2235 451.864 65.2235C448.229 65.2235 445.282 62.3445 445.282 58.793C445.282 55.2416 448.229 52.3626 451.864 52.3626C455.5 52.3626 458.447 55.2416 458.447 58.7931Z"/>
<path d="M555 64.4471L544.895 64.4471L544.895 0L555 3.52983e-06L555 64.4471Z"/>
<path d="M93.6645 66C74.2371 66 59.0742 51.3333 59.0742 33C59.0742 14.6667 74.2371 5.2966e-06 93.6646 1.20829e-05C113.092 1.88691e-05 128.255 14.6667 128.255 33C128.255 51.3333 113.092 66 93.6645 66ZM93.6645 56.375C106.648 56.375 117.357 47.1167 117.357 33C117.357 18.975 106.932 9.62502 93.6646 9.62501C80.397 9.62501 69.9725 19.0667 69.9725 33.0917C69.9725 47.2083 80.6813 56.375 93.6645 56.375Z"/>
<path d="M205.988 0L265.064 2.06359e-05L265.064 9.66708L240.767 9.66707L240.767 64.4471L230.286 64.4471L230.286 9.66707L205.988 9.66706L205.988 0Z"/>
<path d="M381.263 57.1738L381.263 1.72394e-05L391.763 2.09074e-05L391.763 64.4471L373.53 64.4471L342.411 7.36538L342.411 64.447L331.91 64.447L331.91 0L350.143 6.36893e-06L381.263 57.1738Z"/>
<path d="M186.938 57.1738L186.938 1.72394e-05L197.439 2.09074e-05L197.439 64.4471L179.206 64.4471L148.086 7.36538L148.086 64.447L137.586 64.447L137.586 0L155.819 6.36893e-06L186.938 57.1738Z"/>
<path d="M537.901 64.4471L525.338 64.4471L499.035 0L510.813 4.11401e-06L537.901 64.4471Z"/>
<path d="M273.613 64.4471L273.613 0L322.404 1.70434e-05L322.404 9.66708L284.137 9.66706L284.137 26.2392L319.534 26.2392L319.534 35.9062L284.137 35.9062L284.137 54.78L323.361 54.78L323.361 64.4471L273.613 64.4471Z"/>
<rect width="10.8824" height="64.4471"/>
<path d="M478.824 64.4472H466.387L479.99 32.6118H492.038L478.824 64.4472Z"/>
<path d="M33.4252 32.2235L58.2991 64.4474L44.6962 64.4474L20.2109 32.2235L44.8454 8.60515e-06L58.2991 1.33047e-05L33.4252 32.2235Z"/>
</svg>
